<?xml version="1.0" standalone="no"?>
<!DOCTYPE svg PUBLIC "-//W3C//DTD SVG 20010904//EN"
 "http://www.w3.org/TR/2001/REC-SVG-20010904/DTD/svg10.dtd">
<svg version="1.0" xmlns="http://www.w3.org/2000/svg"
 width="700.000000pt" height="700.000000pt" viewBox="0 0 700.000000 700.000000"
 preserveAspectRatio="xMidYMid meet">
<metadata>
Created by potrace 1.14, written by Peter Selinger 2001-2017
</metadata>
<g transform="translate(0.000000,700.000000) scale(0.100000,-0.100000)"
fill="#000000" stroke="none">
<path d="M3045 6752 c3 -9 58 -156 122 -326 l115 -310 -123 -325 c-67 -179
-130 -346 -139 -371 -10 -25 -54 -142 -99 -260 -128 -337 -241 -639 -241 -643
0 -3 65 -5 144 -5 l144 -1 153 407 c83 224 163 436 176 472 13 36 47 127 75
203 l52 138 32 -83 c18 -46 117 -308 219 -583 102 -275 191 -512 196 -526 l10
-27 145 0 c79 -1 144 3 144 7 0 5 -45 127 -99 272 -55 145 -163 435 -241 644
-77 209 -147 396 -155 415 -8 19 -58 152 -110 295 -53 143 -100 269 -105 280
-8 20 -39 103 -98 260 l-29 80 -148 2 c-136 3 -147 1 -140 -15z"/>
<path d="M3282 4396 c-5 -6 -15 -42 -22 -81 -7 -38 -14 -79 -16 -90 -3 -11
-14 -72 -25 -135 -12 -63 -22 -117 -24 -120 -2 -3 -6 -30 -10 -60 -4 -30 -8
-57 -10 -60 -2 -3 -20 -95 -40 -205 -20 -110 -39 -209 -41 -220 -2 -11 -9 -47
-14 -80 -6 -33 -22 -116 -35 -185 -42 -219 -74 -394 -80 -430 -3 -19 -14 -80
-25 -135 -19 -98 -105 -564 -114 -618 -3 -15 -7 -35 -10 -45 -3 -9 -7 -34 -10
-54 -3 -21 -10 -56 -15 -77 -5 -22 -8 -41 -7 -43 0 -2 -2 -1 -6 2 -4 3 -72
147 -151 320 -79 173 -161 350 -181 393 -20 43 -36 80 -36 82 0 2 -25 56 -55
120 -30 65 -55 118 -55 120 0 2 -27 60 -60 130 -33 70 -60 128 -60 130 0 2
-17 41 -39 87 -95 203 -111 239 -111 251 -1 19 -19 -18 -40 -80 -10 -32 -62
-184 -115 -338 -133 -388 -221 -645 -255 -745 -24 -72 -219 -642 -296 -865
-22 -65 -22 -70 -6 -79 21 -12 266 -95 269 -92 4 4 269 774 328 951 42 129
137 401 144 413 5 10 15 -2 31 -40 12 -29 45 -100 71 -157 27 -57 49 -105 49
-106 0 -2 15 -36 34 -77 108 -232 226 -489 226 -492 0 -2 20 -46 44 -97 25
-52 97 -209 161 -349 215 -470 229 -500 231 -497 1 1 10 43 19 92 26 146 34
189 40 215 4 21 57 308 71 390 3 14 20 106 39 205 19 99 36 191 39 205 3 22
73 401 81 440 10 55 35 191 40 220 3 19 8 42 10 50 2 8 7 31 10 50 3 19 14 80
25 135 10 55 22 120 26 145 4 25 8 47 9 50 1 3 5 25 9 50 5 25 10 54 13 65 2
11 13 69 24 129 22 122 38 163 39 106 1 -19 3 -42 4 -50 2 -8 6 -44 10 -80 7
-63 38 -333 51 -435 3 -27 7 -63 9 -80 2 -16 6 -52 10 -80 3 -27 8 -70 11 -95
4 -50 13 -123 21 -185 12 -94 14 -113 19 -165 3 -30 7 -71 10 -90 6 -48 13
-105 20 -170 3 -30 10 -89 15 -130 13 -107 19 -157 26 -225 3 -33 7 -67 9 -75
2 -8 7 -46 11 -85 3 -38 8 -79 10 -90 2 -10 6 -49 9 -85 4 -36 8 -72 10 -80 2
-8 7 -44 10 -80 4 -36 9 -78 11 -95 2 -16 6 -55 10 -85 3 -30 7 -56 8 -57 1
-1 16 21 33 50 68 118 217 374 233 402 40 69 141 241 150 255 5 8 17 29 26 45
10 17 131 225 270 464 140 239 254 438 254 442 0 5 5 9 10 9 6 0 10 4 10 10 0
12 53 100 61 100 5 0 14 -44 44 -205 3 -16 10 -50 15 -75 5 -25 12 -56 14 -70
2 -14 7 -36 10 -50 3 -14 8 -36 10 -50 2 -14 11 -59 20 -100 8 -41 17 -86 20
-100 2 -14 7 -36 10 -50 3 -14 8 -36 10 -50 2 -14 11 -59 20 -100 8 -41 17
-86 20 -100 14 -79 78 -385 80 -388 2 -1 34 4 72 12 38 8 87 18 109 22 121 22
118 20 111 57 -12 63 -16 82 -21 107 -3 14 -7 34 -9 45 -9 44 -78 389 -106
529 -17 82 -32 161 -35 175 -2 14 -16 80 -29 146 -14 66 -27 131 -29 145 -8
41 -32 163 -115 575 l-78 389 -21 -34 c-19 -31 -135 -230 -420 -720 -47 -80
-95 -163 -108 -185 -12 -22 -97 -168 -189 -324 -91 -156 -166 -285 -166 -286
0 -13 -90 -146 -91 -135 -1 8 -3 24 -4 35 -3 21 -16 134 -20 175 -2 14 -6 52
-9 85 -6 55 -11 94 -21 165 -2 14 -6 52 -10 85 -3 33 -10 96 -15 140 -5 44
-12 103 -15 130 -3 28 -10 84 -15 125 -5 41 -12 98 -15 125 -8 79 -15 138 -20
170 -2 17 -7 57 -10 90 -4 33 -8 71 -10 85 -2 14 -7 50 -10 80 -3 30 -10 89
-15 130 -5 41 -12 100 -15 130 -3 30 -7 71 -10 90 -2 19 -7 60 -10 90 -4 30
-8 66 -10 80 -2 14 -7 54 -10 90 -4 36 -8 72 -10 80 -1 8 -6 46 -10 83 -3 37
-8 76 -10 85 -2 10 -6 49 -10 87 -3 39 -8 81 -10 95 -2 14 -6 47 -10 75 -3 27
-8 51 -11 54 -2 2 -59 6 -126 8 -68 2 -131 5 -140 7 -10 2 -21 -1 -26 -8z"/>
<path d="M1979 4369 c-79 -11 -159 -52 -223 -115 -164 -162 -161 -423 6 -579
30 -28 64 -56 77 -64 106 -60 262 -66 371 -15 266 124 321 477 105 671 -93 85
-208 119 -336 102z"/>
<path d="M4742 4368 c-140 -24 -263 -128 -311 -263 -98 -272 107 -552 396
-544 212 7 382 176 392 389 11 257 -223 463 -477 418z"/>
</g>
</svg>
