<?xml version="1.0" standalone="no"?>
<!DOCTYPE svg PUBLIC "-//W3C//DTD SVG 20010904//EN"
 "http://www.w3.org/TR/2001/REC-SVG-20010904/DTD/svg10.dtd">
<svg version="1.0" xmlns="http://www.w3.org/2000/svg"
 width="700.000000pt" height="700.000000pt" viewBox="0 0 700.000000 700.000000"
 preserveAspectRatio="xMidYMid meet">
<metadata>
Created by potrace 1.14, written by Peter Selinger 2001-2017
</metadata>
<g transform="translate(0.000000,700.000000) scale(0.100000,-0.100000)"
fill="#000000" stroke="none">
<path d="M3045 6753 c39 -102 235 -632 235 -637 0 -4 -135 -364 -300 -801
-165 -436 -300 -796 -300 -799 0 -3 65 -6 144 -6 l144 0 217 583 c120 320 223
595 229 611 11 27 27 -12 241 -583 l228 -611 144 0 c79 0 143 3 143 8 0 4
-189 511 -419 1127 l-419 1120 -147 3 c-138 2 -147 1 -140 -15z"/>
<path d="M3278 4394 c-3 -5 -115 -600 -249 -1321 -134 -722 -247 -1313 -250
-1313 -3 0 -173 367 -379 815 -205 449 -377 812 -381 808 -8 -9 -711 -2060
-713 -2081 -1 -9 49 -31 139 -62 77 -27 141 -47 143 -46 2 2 108 310 236 685
128 374 235 683 237 686 3 2 194 -407 424 -911 231 -503 421 -912 422 -907 1
4 109 580 238 1278 130 699 239 1279 242 1290 4 11 73 -547 153 -1240 81 -693
149 -1270 151 -1283 3 -16 148 224 523 868 286 489 522 890 525 890 3 0 66
-302 140 -670 74 -369 137 -670 140 -670 23 2 283 58 287 63 3 3 -91 485 -208
1071 -152 761 -216 1062 -223 1053 -6 -8 -228 -388 -495 -845 -266 -457 -486
-830 -488 -828 -1 2 -72 601 -157 1331 -86 731 -157 1331 -160 1333 -9 9 -292
15 -297 6z"/>
<path d="M1919 4356 c-156 -60 -254 -175 -278 -328 -41 -253 170 -484 423
-465 95 7 133 20 205 68 262 175 230 567 -57 705 -48 24 -72 28 -157 31 -67 2
-112 -2 -136 -11z"/>
<path d="M4689 4356 c-116 -45 -195 -115 -242 -213 -89 -191 -26 -409 151
-522 182 -115 435 -60 551 119 138 213 62 485 -167 597 -49 24 -71 28 -157 30
-66 2 -112 -2 -136 -11z"/>
</g>
</svg>
